<svg width="192" height="192" viewBox="0 0 192 192" fill="none" xmlns="http://www.w3.org/2000/svg">
<path d="M96 176C140.183 176 176 140.183 176 96C176 51.8172 140.183 16 96 16C51.8172 16 16 51.8172 16 96C16 140.183 51.8172 176 96 176Z" stroke="black" stroke-width="2" stroke-linecap="round" stroke-linejoin="round"/>
<path d="M144 104C142.091 115.299 136.203 125.543 127.399 132.879C118.596 140.215 107.458 144.16 96 144C84.5416 144.16 73.404 140.215 64.6006 132.879C55.7971 125.543 49.9088 115.299 48 104H144Z" stroke="black" stroke-width="2" stroke-linecap="round" stroke-linejoin="round"/>
<path d="M72 72H72.08" stroke="black" stroke-width="2" stroke-linecap="round" stroke-linejoin="round"/>
<path d="M120 72H120.08" stroke="black" stroke-width="2" stroke-linecap="round" stroke-linejoin="round"/>
</svg>
